# xmcd CD database file
#
# Track frame offsets:
#	150
#	13399
#	25139
#	37602
#	48221
#	69092
#	83527
#	99834
#	115938
#	129157
#	144779
#	160845
#	178487
#	193645
#	202014
#	209341
#	228813
#	243898
#
# Disc length: 3436 seconds
#
# Revision: 0
# Processed by: cddbd v1.5.1PL0 Copyright (c) Steve Scherf et al.
# Submitted via: CDex 1.50
#
DISCID=db0d6a12
DTITLE=Santana Schmitz - Girl Power Country
DYEAR=2003
DGENRE=Country
TTITLE0=Eileen - Still the one
TTITLE1=Silverwood - Horse run free
TTITLE2=I try to think about Elvis
TTITLE3=Eileen - Don't let me be misunderstood
TTITLE4=Jan and Babe - Bobby McGee
TTITLE5=Pulllman CIty - Banks of the Ohio
TTITLE6=Silverwood - Let the show get started
TTITLE7=Shania Twain - Love gets me every time
TTITLE8=Kathy Mattea - Ball and Chain
TTITLE9=Shania Twain - Love gets me every time
TTITLE10=Pullman City - Will the circle be unbroken
TTITLE11=Shania Twain - Man I feel...
TTITLE12=Pullman City - Proud Mary
TTITLE13=Eileen - Cotton Field
TTITLE14=Pullman City - Mercedes Benz
TTITLE15=Tanja Tucker - Delta Dawn
TTITLE16=Jan and Babe - It's a heartache
TTITLE17=Eileen - You have placed a chill in my heart
EXTD=YEAR: 2003
EXTT0=
EXTT1=
EXTT2=
EXTT3=
EXTT4=
EXTT5=
EXTT6=
EXTT7=
EXTT8=
EXTT9=
EXTT10=
EXTT11=
EXTT12=
EXTT13=
EXTT14=
EXTT15=
EXTT16=
EXTT17=
PLAYORDER=
